<?xml version="1.0" standalone="no"?><!DOCTYPE svg PUBLIC "-//W3C//DTD SVG 1.1//EN" "http://www.w3.org/Graphics/SVG/1.1/DTD/svg11.dtd"><svg t="1578995661130" class="icon" viewBox="0 0 1024 1024" version="1.1" xmlns="http://www.w3.org/2000/svg" p-id="3511" xmlns:xlink="http://www.w3.org/1999/xlink" width="64" height="64"><defs><style type="text/css"></style></defs><path d="M0.5 511.7c0 282.2 228.8 511 511.1 511 282.2 0 511-228.8 511-511C1022.6 229.4 793.8 0.6 511.6 0.6 229.3 0.6 0.5 229.5 0.5 511.7z m0 0" fill="#E4F7FF" p-id="3512"></path><path d="M690.4 886.5c-55.4-25.6-123.5-51.1-123.5-51.1V797c68.1-25.6 119.2-89.4 132-166.1 12.8-4.3 38.3-17 46.8-55.4l8.5-46.8s4.3-59.6-42.6-46.8c4.3-38.3 4.3-80.9 4.3-115-4.3-63.9-89.4-98-89.4-98l12.8-17s-42.6-12.8-59.6-4.3l12.8-29.8s-85.2 0-132 38.3h-4.3v-17s-144.8 21.3-140.5 242.7c-46.8-12.8-42.6 46.8-42.6 46.8l8.5 46.8c4.3 38.3 29.8 51.1 46.8 55.4 12.8 80.9 63.9 144.8 132 166.1v38.3s-68.1 29.8-123.5 51.1c-29.8 12.8-59.6 34.1-80.9 59.6 68.1 51.1 157.6 76.7 255.5 76.7s187.4-25.6 264-72.4c-21.2-29.7-51-46.7-85.1-63.7z m0 0" fill="#197AFF" p-id="3513"></path></svg>